<?xml version="1.0" encoding="utf-8"?>
<!-- Generator: Adobe Illustrator 17.0.2, SVG Export Plug-In . SVG Version: 6.00 Build 0)  -->
<!DOCTYPE svg PUBLIC "-//W3C//DTD SVG 1.1//EN" "http://www.w3.org/Graphics/SVG/1.1/DTD/svg11.dtd">
<svg version="1.1" id="Layer_1" xmlns="http://www.w3.org/2000/svg" xmlns:xlink="http://www.w3.org/1999/xlink" x="0px" y="0px"
	 width="235px" height="43px" viewBox="0 0 235 43" enable-background="new 0 0 235 43" xml:space="preserve">
<g>
	<path fill="#2E6A9C" d="M2.047,0.046h38.905C42.084,0.046,43,0.962,43,2.093v38.905c0,1.131-0.916,2.047-2.047,2.047H2.047
		C0.916,43.046,0,42.13,0,40.998V2.094C0,0.962,0.916,0.046,2.047,0.046z"/>
	<path fill="#FFFFFF" d="M16.501,26.788c0,0.311-0.044,0.519-0.132,0.626c-0.088,0.107-0.287,0.16-0.6,0.16h-4.8
		c-1.016,0-1.731-0.208-2.151-0.625c-0.421-0.416-0.631-1.131-0.631-2.139V9.973c0-1.007,0.21-1.721,0.631-2.138
		c0.42-0.416,1.135-0.626,2.151-0.626h1.973h1.802h1.774v0.901c0,0.311-0.044,0.52-0.131,0.626c-0.088,0.107-0.289,0.16-0.601,0.16
		h-1.292h-2.587c-0.605,0-0.986,0.127-1.14,0.379c-0.158,0.253-0.235,0.679-0.235,1.281v13.673c0,0.601,0.078,1.027,0.235,1.281
		c0.155,0.251,0.535,0.378,1.14,0.378h4.595L16.501,26.788L16.501,26.788z M26.483,35.098c0,0.311-0.045,0.518-0.133,0.626
		c-0.088,0.106-0.289,0.159-0.6,0.159h-2.643c-1.016,0-1.732-0.209-2.151-0.625c-0.355-0.352-0.559-0.916-0.613-1.69
		c-0.005,0-0.01,0-0.015,0l0.005-17.018c0-0.602-0.078-1.028-0.234-1.281c-0.155-0.252-0.536-0.378-1.139-0.378H16.52v-0.902
		c0-0.309,0.044-0.52,0.132-0.625c0.088-0.107,0.288-0.16,0.6-0.16h2.643c1.016,0,1.732,0.208,2.152,0.626
		c0.354,0.351,0.558,0.915,0.612,1.689c0.005,0,0.011,0,0.017,0l-0.007,17.018c0,0.602,0.079,1.029,0.234,1.28
		c0.155,0.253,0.537,0.379,1.143,0.379h2.439v0.902H26.483z M34.812,24.812c0,1.007-0.208,1.721-0.63,2.138
		c-0.42,0.416-1.138,0.626-2.152,0.626h-1.973h-1.8h-1.774v-0.903c0-0.309,0.041-0.517,0.131-0.625c0.086-0.106,0.289-0.16,0.6-0.16
		h1.293h2.589c0.605,0,0.984-0.127,1.14-0.378c0.158-0.253,0.234-0.68,0.234-1.28V10.557c0-0.602-0.077-1.03-0.234-1.281
		c-0.158-0.252-0.535-0.379-1.14-0.379h-4.596V7.996c0-0.311,0.043-0.519,0.131-0.626C26.72,7.263,26.92,7.21,27.232,7.21h4.798
		c1.016,0,1.733,0.209,2.152,0.626c0.422,0.416,0.63,1.129,0.63,2.138L34.812,24.812L34.812,24.812z"/>
</g>
<g>
	<path fill="#010101" d="M68.31,32.411c-0.563,0.473-1.273,0.811-2.129,1.013c-0.856,0.203-1.757,0.305-2.703,0.305
		c-1.195,0-2.298-0.226-3.311-0.676c-1.013-0.45-1.887-1.166-2.618-2.146c-0.732-0.98-1.301-2.246-1.707-3.802
		c-0.406-1.554-0.608-3.423-0.608-5.608c0-2.252,0.231-4.156,0.693-5.71c0.462-1.554,1.075-2.815,1.841-3.784
		c0.766-0.968,1.65-1.666,2.651-2.095c1.002-0.427,2.032-0.642,3.092-0.642c1.081,0,1.977,0.08,2.686,0.237
		c0.71,0.158,1.323,0.349,1.841,0.575l-0.608,2.298c-0.45-0.248-0.98-0.439-1.588-0.575c-0.608-0.135-1.307-0.203-2.095-0.203
		s-1.532,0.175-2.23,0.524c-0.698,0.349-1.318,0.912-1.858,1.689c-0.541,0.777-0.969,1.797-1.284,3.058s-0.473,2.804-0.473,4.629
		c0,3.289,0.563,5.759,1.689,7.416c1.126,1.657,2.624,2.484,4.493,2.484c0.766,0,1.453-0.106,2.061-0.321
		c0.608-0.214,1.126-0.467,1.554-0.76L68.31,32.411z"/>
	<path fill="#010101" d="M69.966,21.499c0-4.009,0.642-7.05,1.926-9.122s3.243-3.108,5.878-3.108c1.419,0,2.623,0.288,3.615,0.862
		c0.991,0.575,1.796,1.391,2.415,2.449c0.618,1.06,1.075,2.343,1.368,3.852c0.293,1.509,0.439,3.198,0.439,5.068
		c0,4.009-0.648,7.049-1.943,9.122c-1.295,2.073-3.26,3.108-5.895,3.108c-1.397,0-2.59-0.288-3.581-0.862
		c-0.991-0.576-1.802-1.391-2.433-2.45c-0.631-1.059-1.087-2.342-1.368-3.852C70.106,25.057,69.966,23.368,69.966,21.499z
		 M72.634,21.499c0,1.329,0.095,2.59,0.288,3.784c0.191,1.194,0.491,2.24,0.896,3.141c0.406,0.901,0.935,1.622,1.588,2.162
		c0.653,0.541,1.441,0.811,2.365,0.811c1.689,0,2.973-0.811,3.852-2.433c0.878-1.622,1.318-4.11,1.318-7.466
		c0-1.307-0.096-2.557-0.287-3.75c-0.191-1.194-0.491-2.247-0.896-3.158c-0.406-0.912-0.935-1.639-1.588-2.179
		c-0.653-0.541-1.453-0.811-2.399-0.811c-1.667,0-2.939,0.811-3.818,2.433C73.075,15.654,72.634,18.142,72.634,21.499z"/>
	<path fill="#010101" d="M89.223,9.674c0.36-0.068,0.76-0.119,1.2-0.153c0.439-0.034,0.884-0.056,1.334-0.068
		s0.896-0.021,1.335-0.034c0.439-0.011,0.85-0.016,1.234-0.016c1.643,0,3.041,0.281,4.189,0.844
		c1.149,0.563,2.083,1.368,2.804,2.415c0.721,1.047,1.239,2.304,1.554,3.768s0.473,3.097,0.473,4.899
		c0,1.622-0.152,3.176-0.456,4.661c-0.304,1.487-0.817,2.794-1.537,3.919c-0.721,1.127-1.672,2.027-2.855,2.703
		c-1.182,0.676-2.664,1.013-4.442,1.013c-0.293,0-0.664-0.006-1.115-0.017s-0.919-0.034-1.403-0.067
		c-0.485-0.034-0.935-0.063-1.351-0.085c-0.418-0.022-0.738-0.056-0.963-0.101V9.674H89.223z M94.46,11.735
		c-0.225,0-0.468,0-0.726,0c-0.259,0-0.513,0.011-0.76,0.034c-0.247,0.022-0.479,0.045-0.692,0.068
		c-0.214,0.022-0.388,0.045-0.524,0.068v19.257c0.09,0.022,0.254,0.04,0.491,0.051c0.237,0.013,0.484,0.022,0.744,0.034
		c0.258,0.011,0.507,0.021,0.744,0.034c0.237,0.011,0.41,0.016,0.523,0.016c1.239,0,2.275-0.27,3.108-0.811
		c0.832-0.54,1.491-1.266,1.977-2.179c0.484-0.912,0.828-1.971,1.03-3.176c0.203-1.205,0.304-2.484,0.304-3.835
		c0-1.194-0.09-2.365-0.27-3.514c-0.18-1.149-0.501-2.167-0.962-3.057c-0.462-0.89-1.092-1.61-1.892-2.162
		C96.751,12.01,95.722,11.735,94.46,11.735z"/>
	<path fill="#010101" d="M106.961,9.674h10.508v2.331h-7.973v8.007h7.332v2.331h-7.332v8.648h8.142v2.331h-10.677V9.674z"/>
	<path fill="#010101" d="M136.117,17.781l0.305-3.581h-0.136l-1.081,3.345l-4.764,10.271h-0.844l-5.001-10.271l-1.047-3.345h-0.135
		l0.473,3.581v15.542h-2.433V9.672h2.129l5.709,11.622l0.844,2.77h0.068l0.811-2.804l5.406-11.589h2.23v23.65h-2.535L136.117,17.781
		L136.117,17.781z"/>
	<path fill="#010101" d="M152.035,26.701h-6.668l-1.886,6.622h-2.5l7.129-24.021h1.386l7.129,24.021h-2.669L152.035,26.701z
		 M146.041,24.505h5.39l-2.055-7.343l-0.623-3.57h-0.069l-0.655,3.638L146.041,24.505z"/>
	<path fill="#010101" d="M162.57,18.323l-1.453-3.717h-0.101l0.372,3.717v15h-2.433V9.302h1.519l8.751,15.339l1.386,3.548h0.135
		l-0.372-3.548V9.674h2.433v24.022h-1.554L162.57,18.323z"/>
	<path fill="#010101" d="M189.499,32.411c-0.564,0.473-1.273,0.811-2.129,1.013c-0.857,0.203-1.758,0.305-2.704,0.305
		c-1.194,0-2.298-0.226-3.31-0.676c-1.013-0.45-1.887-1.166-2.619-2.146c-0.733-0.98-1.301-2.246-1.707-3.802
		c-0.406-1.554-0.608-3.423-0.608-5.608c0-2.252,0.231-4.156,0.693-5.71c0.461-1.554,1.075-2.815,1.841-3.784
		c0.766-0.968,1.65-1.666,2.653-2.095c1.002-0.427,2.032-0.642,3.092-0.642c1.081,0,1.977,0.08,2.686,0.237
		c0.709,0.158,1.323,0.349,1.841,0.575l-0.608,2.298c-0.45-0.248-0.98-0.439-1.588-0.575c-0.609-0.135-1.307-0.203-2.095-0.203
		c-0.789,0-1.533,0.175-2.231,0.524c-0.698,0.349-1.318,0.912-1.857,1.689c-0.541,0.777-0.969,1.797-1.284,3.058
		c-0.316,1.261-0.473,2.804-0.473,4.629c0,3.289,0.562,5.759,1.688,7.416c1.126,1.656,2.623,2.484,4.494,2.484
		c0.765,0,1.453-0.106,2.061-0.321c0.608-0.214,1.126-0.467,1.554-0.76L189.499,32.411z"/>
	<path fill="#010101" d="M192.606,9.674h10.508v2.331h-7.973v8.007h7.332v2.331h-7.332v8.648h8.142v2.331h-10.677V9.674
		L192.606,9.674z"/>
	<path fill="#010101" d="M207.1,9.91c0.744-0.18,1.558-0.309,2.45-0.388c0.889-0.079,1.706-0.118,2.45-0.118
		c0.878,0,1.711,0.106,2.499,0.321c0.788,0.214,1.475,0.575,2.061,1.081c0.585,0.507,1.053,1.173,1.403,1.993
		c0.349,0.822,0.524,1.853,0.524,3.092c0,1.87-0.389,3.367-1.166,4.493c-0.777,1.127-1.808,1.881-3.092,2.264l1.284,1.25
		l4.662,9.426h-2.939l-5.068-10.304l-2.534-0.507v10.811H207.1L207.1,9.91L207.1,9.91z M209.633,20.823h2.027
		c1.284,0,2.297-0.394,3.041-1.182c0.744-0.788,1.115-1.993,1.115-3.615c0-1.238-0.31-2.264-0.928-3.074
		c-0.619-0.811-1.538-1.216-2.753-1.216c-0.45,0-0.917,0.017-1.403,0.05c-0.484,0.034-0.85,0.085-1.097,0.152v8.887L209.633,20.823
		L209.633,20.823z"/>
	<path fill="#010101" d="M223.147,30.181c0.427,0.293,1.03,0.57,1.808,0.828c0.777,0.259,1.66,0.389,2.651,0.389
		c1.261,0,2.286-0.31,3.074-0.928c0.789-0.619,1.182-1.594,1.182-2.922c0-0.878-0.225-1.643-0.676-2.298
		c-0.45-0.653-1.013-1.255-1.688-1.807c-0.676-0.552-1.403-1.092-2.18-1.622c-0.777-0.529-1.504-1.115-2.18-1.757
		c-0.675-0.642-1.239-1.379-1.688-2.213c-0.45-0.833-0.676-1.836-0.676-3.007c0-1.892,0.569-3.295,1.707-4.207
		c1.137-0.912,2.618-1.368,4.442-1.368c1.126,0,2.129,0.101,3.008,0.304c0.878,0.203,1.588,0.462,2.129,0.777l-0.811,2.23
		c-0.406-0.248-0.986-0.473-1.741-0.676c-0.754-0.203-1.628-0.304-2.619-0.304c-1.216,0-2.116,0.299-2.703,0.896
		c-0.585,0.597-0.878,1.346-0.878,2.247c0,0.788,0.225,1.487,0.676,2.095c0.45,0.608,1.013,1.182,1.689,1.723
		s1.401,1.087,2.179,1.639c0.778,0.552,1.504,1.165,2.18,1.841c0.676,0.676,1.239,1.441,1.689,2.298
		c0.449,0.856,0.675,1.87,0.675,3.041c0,1.982-0.585,3.536-1.757,4.662c-1.171,1.127-2.827,1.689-4.967,1.689
		c-1.351,0-2.461-0.125-3.328-0.372c-0.867-0.248-1.559-0.529-2.077-0.844L223.147,30.181z"/>
</g>
</svg>
